<?xml version="1.0" encoding="utf-8"?>
<!-- Generator: Adobe Illustrator 24.2.1, SVG Export Plug-In . SVG Version: 6.00 Build 0)  -->
<svg version="1.1" id="Layer_1" xmlns="http://www.w3.org/2000/svg" xmlns:xlink="http://www.w3.org/1999/xlink" x="0px" y="0px"
	 viewBox="0 0 92.5 92.7" style="enable-background:new 0 0 92.5 92.7;" xml:space="preserve">
<style type="text/css">
	.st0{fill:#FFCC00;}
</style>
<path class="st0" d="M83.7,9.2C78.5,4,72,1.2,66,1.5c-4.6,0.2-8.9,2.4-11.8,6.1c-6.8,8.3-16.1,36.2-16.5,37.3l-0.8,1.2
	c-0.2,0.2-0.1,0.6,0.1,0.8l9,9c0.2,0.2,0.5,0.2,0.8,0.1l1.2-0.8c1.2-0.4,29-9.8,37.3-16.5c3.6-2.9,5.9-7.1,6.1-11.8
	C91.7,20.9,88.9,14.5,83.7,9.2z M84.5,14.9C82.9,28.1,73.7,35,45.7,49.7l-0.1-0.1l37-37C83.2,13.3,83.9,14.1,84.5,14.9z M43.2,47.2
	C57.9,19.2,64.9,10,78,8.4c0.8,0.6,1.6,1.2,2.4,1.9l-37,37L43.2,47.2z M56.7,9.5c2.3-3,5.8-4.8,9.5-4.9c2.6-0.1,5.2,0.4,7.6,1.5
	C61.2,9.3,53.7,20.7,41,44.7C42.9,39.3,51,16.5,56.7,9.5z M88.4,26.7c-0.2,3.7-2,7.2-5,9.5C76.5,41.9,53.7,50,48.2,51.9
	c24-12.7,35.4-20.1,38.6-32.8C87.9,21.5,88.4,24.1,88.4,26.7z"/>
<path class="st0" d="M28.1,55.2c-0.6,0.6-1.2,1.2-1.9,1.7L4.7,75.2c-3.9,3.3-4.3,9.1-1,13c0.2,0.2,0.3,0.4,0.5,0.5l0,0
	c3.6,3.6,9.4,3.6,13,0c0.2-0.2,0.3-0.3,0.5-0.5L36,66.7c0.6-0.6,1.1-1.3,1.7-1.9l6.4-6.4l-9.7-9.7L28.1,55.2z"/>
</svg>
